<?xml version="1.0" standalone="no"?><!DOCTYPE svg PUBLIC "-//W3C//DTD SVG 1.1//EN" "http://www.w3.org/Graphics/SVG/1.1/DTD/svg11.dtd"><svg t="1588019157476" class="icon" viewBox="0 0 1024 1024" version="1.1" xmlns="http://www.w3.org/2000/svg" p-id="7143" width="88" height="88" xmlns:xlink="http://www.w3.org/1999/xlink"><defs><style type="text/css"></style></defs><path d="M0 319.808A320 320 0 0 1 319.808 0h384.384A320 320 0 0 1 1024 319.808v384.384A320 320 0 0 1 704.192 1024H319.808A320 320 0 0 1 0 704.192V319.808z m841.984 160.064h-138.24a28.032 28.032 0 0 0-28.352 27.584v8.64c0 15.232 12.672 27.584 28.352 27.584h138.24a27.968 27.968 0 0 0 28.416-27.584v-8.64a28.032 28.032 0 0 0-28.416-27.52z m-320.768-236.8c-43.008 33.152-132.992 79.488-197.76 124.16h-0.064c-0.768 0.448-1.472 2.88-2.24 3.328-7.68 4.16-11.072 15.68-52.672 15.68H187.328c-20.8 0-33.728 9.408-33.728 30.72V606.08c0 21.248 11.84 31.808 33.728 31.808H268.8c41.408 0 44.8 11.52 52.416 15.616 0.704 0.448 1.408 2.88 2.176 3.328h0.128c62.72 44.672 153.28 94.72 197.76 126.4 13.312 9.6 57.856 26.368 57.856-32.768V273.28c0-59.072-44.864-40.192-57.92-30.208z m127.68 130.432c7.36 12.544 21.888 15.68 32.512 7.04l113.664-92.8c10.624-8.576 13.248-25.792 5.952-38.336l-4.16-7.04c-7.36-12.608-21.952-15.744-32.512-7.04l-113.664 92.672c-10.624 8.64-13.312 25.856-5.952 38.4l4.16 7.04z m32.512 270.016c-10.624-8.64-25.152-5.504-32.512 7.04l-4.16 7.04c-7.36 12.544-4.672 29.76 5.952 38.4l113.664 92.736c10.56 8.64 25.152 5.504 32.448-7.04l4.16-7.04c7.36-12.608 4.672-29.76-5.888-38.4l-113.664-92.736z" fill="#FA7D4D" p-id="7144"></path></svg>