<?xml version="1.0" standalone="no"?><!DOCTYPE svg PUBLIC "-//W3C//DTD SVG 1.1//EN" "http://www.w3.org/Graphics/SVG/1.1/DTD/svg11.dtd"><svg t="1573873696805" class="icon" viewBox="0 0 1024 1024" version="1.1" xmlns="http://www.w3.org/2000/svg" p-id="3131" xmlns:xlink="http://www.w3.org/1999/xlink" width="128" height="128"><defs><style type="text/css"></style></defs><path d="M75.264 1024c-41.472 0-74.752-33.792-74.752-75.264v-212.48c0-41.472 33.792-75.264 74.752-75.264h82.432v-163.84h329.728v-133.12h-106.496c-41.472 0-74.752-33.792-74.752-75.264v-212.48c0-41.472 33.792-75.264 74.752-75.264h251.904c41.472 0 74.752 33.792 74.752 75.264v212.48c0 41.472-33.792 75.264-74.752 75.264h-100.864v133.12h315.392v1.024h1.024v160.256h100.864c41.472 0.512 74.752 34.304 74.752 75.264v212.48c0 41.472-33.792 75.264-74.752 75.264h-251.904c-41.472 0-74.752-33.792-74.752-75.264v-211.968c0-41.472 33.792-75.264 74.752-75.264h103.936v-112.64h-598.016V660.48h123.904c41.472 0 74.752 33.792 74.752 75.264v212.48c0 41.472-33.792 75.264-74.752 75.264h-251.904z m0-314.368c-14.848 0-26.624 11.776-26.624 26.624v212.48c0 14.848 11.776 26.624 26.624 26.624h251.392c14.848 0 26.624-11.776 26.624-26.624v-212.48c0-14.336-12.288-26.624-26.624-26.624h-251.392z m621.056-2.56c-14.848 0-26.624 11.776-26.624 26.624v212.48c0 7.168 2.56 13.824 7.68 18.944s11.776 7.68 18.944 7.68h251.904c14.848 0 26.624-11.776 26.624-26.624v-212.48c0-14.848-11.776-26.624-26.624-26.624H696.32z m-315.904-657.92c-14.848 0-26.624 11.776-26.624 26.624v212.48c0 13.824 11.776 26.112 26.112 26.624h252.416c14.848 0 26.624-11.776 26.624-26.624v-212.48c0-14.848-11.776-26.624-26.624-26.624h-251.904z" fill="#28a6f9" p-id="3132"></path></svg>