<?xml version="1.0" standalone="no"?><!DOCTYPE svg PUBLIC "-//W3C//DTD SVG 1.1//EN" "http://www.w3.org/Graphics/SVG/1.1/DTD/svg11.dtd"><svg t="1573873707377" class="icon" viewBox="0 0 1024 1024" version="1.1" xmlns="http://www.w3.org/2000/svg" p-id="3917" width="128" height="128" xmlns:xlink="http://www.w3.org/1999/xlink"><defs><style type="text/css"></style></defs><path d="M468.543767 349.145935H126.219191c-34.733059 0-62.99166-28.257577-62.991659-62.99166V131.288139c0-34.733059 28.257577-62.990636 62.991659-62.990637h342.324576c34.717709 0 62.96096 28.257577 62.960961 62.990637v154.866136c0 34.733059-28.243251 62.99166-62.960961 62.99166zM126.219191 109.22975c-12.163017 0-22.059412 9.895371-22.059411 22.058389v154.866136c0 12.163017 9.895371 22.059412 22.059411 22.059412h342.324576c12.146645 0 22.028713-9.895371 22.028713-22.059412V131.288139c0-12.163017-9.882068-22.058388-22.028713-22.058389H126.219191zM895.892809 646.630257H553.563116c-34.732036 0-62.990636-28.244274-62.990636-62.959937v-95.411024c0-34.715663 28.257577-62.959937 62.990636-62.959937h342.329693c34.717709 0 62.96096 28.244274 62.96096 62.959937v95.411024c0.001023 34.715663-28.243251 62.959937-62.96096 62.959937zM553.563116 466.230584c-12.163017 0-22.058388 9.882068-22.058388 22.027689v95.411023c0 12.146645 9.895371 22.027689 22.058388 22.027689h342.329693c12.146645 0 22.028713-9.881045 22.028712-22.027689v-95.411023c0-12.145621-9.882068-22.027689-22.028712-22.027689H553.563116zM895.892809 942.073082H553.563116c-34.732036 0-62.990636-28.245298-62.990636-62.963007v-95.412046c0-34.718733 28.257577-62.963007 62.990636-62.963007h342.329693c34.717709 0 62.96096 28.245298 62.96096 62.963007v95.412046c0.001023 34.718733-28.243251 62.963007-62.96096 62.963007zM553.563116 761.66727c-12.163017 0-22.058388 9.883091-22.058388 22.030759v95.412046c0 12.147668 9.895371 22.030759 22.058388 22.03076h342.329693c12.146645 0 22.028713-9.883091 22.028712-22.03076v-95.412046c0-12.147668-9.882068-22.030759-22.028712-22.030759H553.563116z" fill="#28a6f9" p-id="3918"></path><path d="M356.494809 828.089052H194.429713V342.67557h40.932248v444.481234h121.132848z" fill="#28a6f9" p-id="3919"></path><path d="M214.895837 482.523665h141.599995v40.932248H214.895837z" fill="#28a6f9" p-id="3920"></path></svg>